# xmcd
#
# Track frame offsets:
#	150
#	18656
#	30818
#	41825
#	56879
#	69392
#	81322
#	94458
#	106208
#	117878
#	131288
#	144287
#	155342
#	164323
#	175229
#	194769
#
# Disc length: 2740 seconds
#
# Revision: 3
# Processed by: cddbd v1.5.2PL0 Copyright (c) Steve Scherf et al.
# Submitted via: audiograbber 1.83.01
#
DISCID=d80ab210
DTITLE=MH1008 Monster Hits - Male Classic Country (MH)
DYEAR=2007
DGENRE=Karaoke
TTITLE0=Ray Price - For The Good Times (MH)
TTITLE1=Roger Miller - King Of The Road (MH)
TTITLE2=Faron Young - Hello Walls (MH)
TTITLE3=Hank Williams - Kaw Liga (MH)
TTITLE4=Traditional Blue Grass - Rocky Top (MH)
TTITLE5=Johnny Cash - I Walk The Line (MH)
TTITLE6=Waylon Jennings - I'm A Ramblin' Man (MH)
TTITLE7=Marty Robbins - A White Sports Coat (MH)
TTITLE8=Conway Twitty - It's Only Make Believe (MH)
TTITLE9=Hank Williams - Hey Good Lookin' (MH)
TTITLE10=Hank Williams  - Lovesick Blues (MH)
TTITLE11=Tennessee Ernie Ford - Sixteen Tons (MH)
TTITLE12=Roger Miller  - Dang Me (MH)
TTITLE13=Jimmie Rodgers - Honeycomb (MH)
TTITLE14=Alabama - Moutain Music (MH)
TTITLE15=Willie Nelson - On The Road Again (MH)
EXTD=
EXTT0=
EXTT1=
EXTT2=
EXTT3=
EXTT4=
EXTT5=
EXTT6=
EXTT7=
EXTT8=
EXTT9=
EXTT10=
EXTT11=
EXTT12=
EXTT13=
EXTT14=
EXTT15=
PLAYORDER=
